Coordinates
version=1
nRows=49
nColumns=12
inDegrees=yes

Units are S.I. units (second, meters, Newtons, ...)
Angles are in degrees

endheader
time	SC_y	SC_z	SC_x	AC_y	AC_z	AC_x	GH_y	GH_z	GH_yy	EL_x	PS_y
       0.0              -58.34          23.44           77.7          57.68          4.403          17.05         -157.4           88.1         -112.1          76.36          150.2
   0.02891              -58.33          23.44           77.7          57.68          4.401          17.05         -157.4          88.08         -112.0          76.35          150.2
   0.05783              -58.33          23.44           77.7          57.68            4.4          17.05         -157.4          88.07         -112.0          76.34          150.2
   0.08674              -58.33          23.44           77.7          57.68          4.398          17.05         -157.4          88.05         -112.0          76.34          150.2
    0.1157              -58.33          23.44           77.7          57.68          4.396          17.05         -157.4          88.03         -111.9          76.33          150.1
    0.1446              -58.32          23.44           77.7          57.69          4.394          17.05         -157.4          88.01         -111.9          76.32          150.1
    0.1735              -58.32          23.44           77.7          57.69          4.392          17.04         -157.4          87.99         -111.8          76.31          150.1
    0.2024              -58.32          23.44           77.7          57.69          4.389          17.04         -157.4          87.97         -111.7           76.3          150.1
    0.2313              -58.31          23.44           77.7          57.69          4.387          17.04         -157.4          87.95         -111.7           76.3          150.1
    0.2602              -58.31          23.44           77.7           57.7          4.384          17.04         -157.4          87.92         -111.6          76.28          150.1
    0.2891               -58.3          23.44           77.7           57.7          4.381          17.04         -157.4          87.89         -111.5          76.27          150.1
     0.318               -58.3          23.44           77.7           57.7          4.378          17.04         -157.4          87.86         -111.5          76.26          150.1
     0.347              -58.29          23.43           77.7          57.71          4.375          17.03         -157.4          87.83         -111.4          76.25          150.1
    0.3759              -58.29          23.43           77.7          57.71          4.371          17.03         -157.4           87.8         -111.3          76.23          150.1
    0.4048              -58.28          23.43           77.7          57.72          4.367          17.03         -157.4          87.76         -111.2          76.22          150.0
    0.4337              -58.28          23.43           77.7          57.72          4.363          17.03         -157.4          87.72         -111.1           76.2          150.0
    0.4626              -58.27          23.43           77.7          57.72          4.358          17.02         -157.4          87.68         -111.0          76.19          150.0
    0.4915              -58.26          23.43           77.7          57.73          4.353          17.02         -157.4          87.63         -110.9          76.17          150.0
    0.5204              -58.26          23.43          77.69          57.74          4.348          17.02         -157.4          87.58         -110.7          76.14          150.0
    0.5493              -58.25          23.43          77.69          57.74          4.342          17.01         -157.4          87.52         -110.6          76.12          150.0
    0.5783              -58.24          23.42          77.69          57.75          4.335          17.01         -157.4          87.46         -110.4           76.1          149.9
    0.6072              -58.23          23.42          77.69          57.76          4.328           17.0         -157.4          87.39         -110.2          76.07          149.9
    0.6361              -58.22          23.42          77.69          57.77           4.32           17.0         -157.4          87.31         -110.0          76.04          149.9
     0.665               -58.2          23.42          77.69          57.78          4.311          16.99         -157.4          87.23         -109.8           76.0          149.8
    0.6939              -58.19          23.42          77.69          57.79          4.301          16.99         -157.4          87.14         -109.5          75.97          149.8
    0.7228              -58.17          23.41          77.69           57.8           4.29          16.98         -157.4          87.03         -109.3          75.92          149.8
    0.7517              -58.15          23.41          77.68          57.81          4.277          16.97         -157.4          86.92         -109.0          75.87          149.7
    0.7806              -58.13          23.41          77.68          57.83          4.264          16.96         -157.3          86.78         -108.6          75.82          149.7
    0.8096              -58.11           23.4          77.68          57.85          4.248          16.95         -157.3          86.63         -108.2          75.76          149.6
    0.8385              -58.08           23.4          77.68          57.87           4.23          16.94         -157.3          86.47         -107.8          75.69          149.6
    0.8674              -58.06          23.39          77.67          57.89          4.209          16.93         -157.3          86.27         -107.3          75.61          149.5
    0.8963              -58.02          23.38          77.67          57.92          4.186          16.91         -157.3          86.05         -106.7          75.52          149.4
    0.9252              -57.98          23.38          77.66          57.95          4.159           16.9         -157.3           85.8         -106.0          75.42          149.3
    0.9541              -57.94          23.37          77.66          57.98          4.128          16.88         -157.2           85.5         -105.2           75.3          149.2
     0.983              -57.88          23.36          77.65          58.02          4.091          16.85         -157.2          85.15         -104.3          75.16          149.1
     1.012              -57.82          23.35          77.65          58.07          4.047          16.82         -157.2          84.74         -103.2          74.99          148.9
     1.041              -57.75          23.33          77.64          58.13          3.996          16.79         -157.1          84.26         -102.0          74.79          148.7
      1.07              -57.66          23.32          77.63           58.2          3.934          16.75         -157.1          83.68         -100.4          74.56          148.5
     1.099              -57.55           23.3          77.61          58.28           3.86           16.7         -157.0          82.97         -98.56          74.27          148.3
     1.128              -57.42          23.27           77.6          58.38          3.768          16.65         -157.0          82.11         -96.28          73.92          147.9
     1.157              -57.25          23.24          77.58          58.51          3.656          16.57         -156.9          81.05         -93.48          73.49          147.5
     1.185              -57.05          23.21          77.56          58.66          3.515          16.48         -156.8          79.72         -89.98          72.95          147.0
     1.214              -56.79          23.16          77.53          58.86          3.338          16.37         -156.7          78.05         -85.58          72.27          146.4
     1.243              -56.47           23.1          77.49          59.11          3.113          16.23         -156.5          75.93         -79.98           71.4          145.6
     1.272              -56.05          23.03          77.45          59.43          2.826          16.04         -156.3          73.21         -72.81           70.3          144.6
     1.301              -55.51          22.93          77.38          59.84          2.456          15.81         -156.0          69.73         -63.61          68.88          143.3
      1.33              -54.83           22.8          77.31          60.37          1.984           15.5         -155.7          65.27         -51.86          67.06          141.6
     1.359              -53.97          22.65          77.21          61.03          1.391          15.12         -155.2          59.68         -37.09          64.79          139.5
     1.388              -52.92          22.45          77.09          61.83         0.6682          14.66         -154.7          52.85         -19.08          62.01          137.0
